# xmcd
#
# Track frame offsets:
#	150
#	19607
#	37667
#	58792
#	71460
#	81652
#	87282
#	104622
#	119022
#	142655
#	156147
#	175470
#
# Disc length: 2513 seconds
#
# Revision: 1
# Processed by: cddbd v1.4PL0 Copyright (c) Steve Scherf et al.
# Submitted via: audiograbber 1.80.04
#
DISCID=9d09cf0c
DTITLE=Heli Deinboek - Krallelujah
DYEAR=1900
DGENRE=
TTITLE0=Schpüt´s eich
TTITLE1=Lintschi
TTITLE2=Krallelujah
TTITLE3=Über ich Blues
TTITLE4=Da Teife hod mi g´riddn
TTITLE5=Blues
TTITLE6=Mau is Mau
TTITLE7=Zeigefinger Blues
TTITLE8=Grüß Gott i kriag an Stempe
TTITLE9=Raf´n midn Rotz
TTITLE10=A unhamlich lockara Blues
TTITLE11=Mei Zeit wird kumma
EXTD=
EXTT0=
EXTT1=
EXTT2=
EXTT3=
EXTT4=
EXTT5=
EXTT6=
EXTT7=
EXTT8=
EXTT9=
EXTT10=
EXTT11=
PLAYORDER=
